<svg xmlns="http://www.w3.org/2000/svg" viewBox="0 0 654.17 153.06"><style>.st1{fill:#f47521}</style><g id="Layer_7"><path d="M87.07 57.59c-.93-2.54-2.27-4.81-4-6.8a23.872 23.872 0 0 0-6.23-5.15c-3.18-1.86-7.16-3.13-11.95-3.81-4.79-.64-11.61-.95-20.46-.95-5.17 0-9.64.15-13.41.44-3.9.34-6.86.83-8.9 1.46-2.33.72-4.41 1.76-6.23 3.12-.42.34-.85.72-1.27 1.14v-3.18c0-.59-.21-1.1-.64-1.52-.42-.42-.91-.64-1.46-.64H2.16c-.59 0-1.12.21-1.59.64-.38.38-.57.89-.57 1.52v89.48c0 .64.19 1.15.57 1.53.47.42.99.64 1.59.64h10.36c.55 0 1.04-.21 1.46-.64.42-.42.64-.93.64-1.53v-26.63c2.2 1.86 4.79 3.22 7.75 4.07 2.08.64 4.94 1.1 8.58 1.4 3.47.3 7.58.45 12.33.45 6.57 0 12.16-.19 16.78-.57 4.79-.38 8.49-.97 11.12-1.78 2.84-.85 5.4-2.14 7.69-3.88 2.33-1.78 4.3-3.94 5.91-6.48 1.65-2.5 2.88-5.76 3.69-9.79.8-3.77 1.21-8.22 1.21-13.35-.01-8.18-.87-14.57-2.61-19.19zm-14.3 32.16c-.93 2.84-2.44 4.91-4.51 6.23-1.86 1.23-4.53 2.06-8.01 2.48-3.64.51-9.36.76-17.16.76-5.76 0-10.49-.23-14.17-.7-3.47-.46-6.08-1.16-7.82-2.1-1.23-.72-2.25-1.57-3.05-2.54-.85-1.02-1.53-2.25-2.03-3.69-1.1-3.01-1.65-7.71-1.65-14.11 0-5.38.51-9.51 1.52-12.39.98-2.76 2.46-4.83 4.45-6.23 1.78-1.19 4.51-2.01 8.2-2.48 4.15-.51 10.25-.76 18.3-.76 5.13 0 9.58.25 13.35.76 3.43.51 5.91 1.21 7.44 2.1 1.23.72 2.25 1.55 3.05 2.48.89 1.06 1.57 2.27 2.03 3.62 1.1 3.01 1.65 7.63 1.65 13.86 0 5.5-.53 9.74-1.59 12.71zm113.25-24.98c-.13-2.54-.4-4.81-.83-6.8-.76-3.52-2.44-6.61-5.02-9.28-3.05-3.14-7.29-5.27-12.71-6.42-2.54-.51-5.87-.89-9.98-1.14-4.36-.3-9.22-.45-14.55-.45-7.29 0-13.39.32-18.3.95-5 .68-8.94 1.69-11.82 3.05-3.01 1.48-5.25 3.58-6.74 6.29-1.48 2.67-2.22 5.91-2.22 9.72l.13 3.11c.09.51.32.95.7 1.34.42.38.91.57 1.46.57h10.8c.64 0 1.14-.19 1.53-.57.42-.42.64-.95.64-1.59v-.89c0-1.91.32-3.41.95-4.51.55-.97 1.44-1.72 2.67-2.22.59-.25 1.53-.51 2.8-.76l4.51-.64c3.56-.3 8.11-.44 13.66-.44 4.28 0 7.92.11 10.93.32 2.92.21 5.32.49 7.18.83 1.82.42 3.26.95 4.32 1.59 1.23.68 2.18 1.46 2.86 2.35.85 1.02 1.48 2.41 1.91 4.19.47 1.95.7 4.3.7 7.05v2.67c-.55-.46-1.12-.89-1.72-1.27-1.87-1.1-3.94-1.89-6.23-2.35-2.12-.34-5.47-.64-10.04-.89-4.49-.21-10.11-.32-16.84-.32-5.13 0-9.36.11-12.71.32-3.43.21-6.38.55-8.83 1.02-1.48.25-2.82.64-4 1.14v.06c-1.86.76-3.43 1.7-4.7 2.8-1.31 1.19-2.39 2.61-3.24 4.26-1.53 3.09-2.29 7.33-2.29 12.71 0 4.36.51 7.86 1.53 10.49 1.02 2.67 2.86 4.94 5.53 6.8 1.27 1.02 2.9 1.86 4.89 2.54 1.82.64 3.92 1.1 6.29 1.4h.06c2.16.25 5.34.47 9.53.64 5.34.13 10.23.19 14.68.19 4.83 0 9.13-.13 12.9-.38 3.77-.34 6.52-.74 8.26-1.21 2.63-.76 4.98-2.06 7.05-3.88l-.13 2.41c0 .55.21 1.08.64 1.59.47.42 1 .64 1.59.64h10.36c.55 0 1.04-.21 1.46-.64.47-.42.7-.93.7-1.52v-34.7c0-3.94-.1-7.33-.32-10.17zm-16.08 30.12c-.64 1.02-1.65 1.8-3.05 2.35-1.53.68-4.05 1.19-7.56 1.52-3.39.3-7.92.45-13.6.45-10.04 0-17.18-.25-21.42-.76-1.48-.13-2.61-.32-3.37-.57l-.89-.25c-1.23-.59-2.14-1.42-2.73-2.48-.59-1.15-.89-2.61-.89-4.39 0-1.86.25-3.41.76-4.64.55-1.1 1.29-1.93 2.23-2.48a9.06 9.06 0 0 1 2.29-.76c1.1-.25 2.48-.47 4.13-.63 3.26-.3 9.19-.44 17.8-.44 6.1 0 10.91.19 14.43.57 3.73.34 6.5.85 8.33 1.52 1.53.59 2.67 1.42 3.43 2.48.72 1.02 1.08 2.4 1.08 4.13-.01 1.74-.33 3.2-.97 4.38zm38.26-52.11l30.63 55.1 28.28-55.04c.42-.76 1.06-1.14 1.91-1.14h12.2c.8 0 1.42.34 1.84 1.02.42.76.44 1.46.06 2.1l-32.03 61.2v.06c-3.94 7.42-6.99 12.67-9.15 15.76-2.33 3.26-4.94 5.91-7.82 7.94a25.395 25.395 0 0 1-8.9 3.88c-3.01.64-7.33.97-12.96 1.02-2.33 0-4.34-.04-6.04-.13a2.14 2.14 0 0 1-1.4-.63c-.42-.42-.64-.93-.64-1.53v-9.53c0-.64.23-1.17.7-1.59.47-.38 1.04-.55 1.72-.51 1.74.17 3.26.25 4.58.25 3.31 0 6.1-.21 8.39-.63 2.25-.38 3.96-.91 5.15-1.59v-.06c1.1-.59 2.35-1.74 3.75-3.43.8-1.02 1.65-2.22 2.54-3.62-.68-.08-1.25-.45-1.72-1.08L192.3 44.95c-.42-.72-.42-1.46 0-2.23.42-.68 1.04-1.02 1.84-1.02h12.2c.83 0 1.44.36 1.86 1.08" fill-rule="evenodd" clip-rule="evenodd" fill="#0080c4"/><path class="st1" d="M247.45 153.06h2.37c28.6 0 52.88-2.63 72.83-7.88 1.44-.42 2.86-.82 4.26-1.21 27.28-8.01 42.39-20.83 45.31-38.45.97-5.72-1.23-11.84-6.61-18.37-2.55-3.09-6.21-6.64-10.92-10.62-2.28-1.78-4.8-3.67-7.56-5.67-10.34-7.5-16.88-12.52-19.64-15.06-5.76-5.34-8.33-9.94-7.69-13.79 2.42-14.53 19.38-25.51 50.91-32.92 3.39-.8 6.95-1.57 10.68-2.29.56-.11 1.11-.19 1.67-.3 2.85-.53 5.7-1.04 8.54-1.5 2.22-.36 4.43-.67 6.64-.98 1.06-.15 2.11-.31 3.17-.45 2.79-.37 5.57-.7 8.35-1 .34-.04.68-.08 1.02-.11 3.07-.32 6.13-.61 9.18-.85v-.02c.01 0-.01.03 0 .03.44 0 .82-.38.82-.82.02-.44-.34-.8-.78-.8-.01 0 .01 0 0 0h-2.41c-.44 0-.86.01-1.3.02-3.11.01-6.19.04-9.19.11-1.73.04-3.4.12-5.1.19-1.66.06-3.36.1-5 .18-19.83.98-37.23 3.45-52.19 7.39-1.44.42-2.86.82-4.26 1.21-27.28 8.01-42.39 20.83-45.31 38.45-.97 5.72 1.23 11.84 6.61 18.37 2.55 3.09 6.21 6.64 10.92 10.62 2.28 1.78 4.8 3.67 7.56 5.67 10.34 7.5 16.88 12.52 19.64 15.06 5.76 5.34 8.33 9.94 7.69 13.79-2.42 14.53-19.38 25.51-50.91 32.92-3.39.8-6.95 1.57-10.68 2.29-.56.11-1.11.19-1.67.3-2.85.53-5.7 1.04-8.54 1.5-2.22.36-4.43.67-6.64.98-1.06.15-2.11.31-3.17.45-2.79.37-5.57.7-8.35 1-.34.04-.68.08-1.03.11-3.07.32-9.18.85-9.2.85-.44 0-.79.38-.79.82-.02.42.33.78.77.78z"/><path class="st1" d="M472.02 80.59c.47-.42.7-.93.7-1.52-.13-7.92-.66-13.88-1.59-17.86-.97-4.02-2.86-7.65-5.66-10.87-3.35-3.81-7.75-6.35-13.22-7.63-2.54-.64-5.93-1.1-10.17-1.4-4.2-.3-9.13-.44-14.81-.44-6.14 0-11.29.21-15.44.64-4.32.38-7.86 1.02-10.61 1.91-2.88.93-5.34 2.27-7.37 4-2.12 1.7-3.92 3.83-5.4 6.42-1.53 2.62-2.67 5.91-3.43 9.85-.72 3.73-1.08 8.13-1.08 13.22 0 7.16.85 13.22 2.54 18.18 1.87 5.08 4.64 8.94 8.33 11.57 3.22 2.25 7.84 3.81 13.86 4.7 6.02.85 14.49 1.27 25.42 1.27 6.74 0 12.5-.38 17.29-1.15 5-.89 8.94-2.16 11.82-3.81 3.05-1.82 5.34-4.28 6.87-7.37 1.57-3.01 2.39-6.65 2.48-10.93 0-.64-.21-1.15-.64-1.53-.42-.42-.91-.63-1.46-.63H459.5c-.59 0-1.08.17-1.46.51-.38.42-.61.89-.7 1.4-.17 1.57-.42 2.84-.76 3.81-.3.97-.66 1.69-1.08 2.16 0 .04-.02.06-.06.06-.72.72-1.57 1.31-2.54 1.78-1.14.59-2.48 1.04-4 1.34-3.3.64-8.62.95-15.95.95-4.53 0-8.75-.07-12.65-.19-3.35-.21-6.14-.51-8.39-.89h.06c-1.86-.3-3.58-.78-5.15-1.46-1.48-.72-2.56-1.46-3.24-2.22-1.27-1.27-2.25-3.14-2.92-5.59-.59-2.08-1-4.62-1.21-7.63h71.05c.63-.01 1.14-.22 1.52-.65zm-72.13-12.58c.29-2.08.78-3.92 1.46-5.53.76-1.91 1.82-3.39 3.18-4.45l.06-.06c1.74-1.36 4.17-2.29 7.31-2.8 3.48-.64 8.5-.95 15.06-.95 7.63 0 13.37.32 17.22.95 3.73.64 6.52 1.7 8.39 3.18 1.36 1.06 2.39 2.5 3.11 4.32.59 1.57.98 3.35 1.15 5.34h-56.94zm153.29-21.67c-2.42-2.08-5.44-3.54-9.09-4.39-3.39-.72-8.37-1.08-14.93-1.08-2.29 0-4.36.02-6.23.06-3.52.08-6.4.25-8.64.51-3.52.38-6.4 1.16-8.64 2.35-1.91.97-3.56 2.14-4.96 3.49v-3.43c0-.59-.21-1.1-.64-1.52-.46-.42-.99-.64-1.59-.64H488.1c-.55 0-1.04.21-1.46.64-.42.42-.63.93-.63 1.52v65.78c0 .59.21 1.1.63 1.52.42.42.91.64 1.46.64h10.36c.59 0 1.12-.21 1.59-.64.42-.42.64-.93.64-1.52V79.26c0-4.15.23-7.8.7-10.93.47-3.01 1.14-5.4 2.03-7.18.55-1.1 1.16-1.95 1.85-2.54.72-.63 1.69-1.23 2.92-1.78 1.36-.55 2.95-1.02 4.77-1.4 2.84-.59 6.17-.98 9.98-1.14 1.57-.04 3.24-.06 5.02-.06 3.9 0 7.22.3 9.98.89 2.37.51 4.07 1.25 5.09 2.22.93.89 1.59 2.08 1.97 3.56v.06c.47 1.86.7 4.45.7 7.75v4.7c0 .55.21 1.06.64 1.52.42.42.93.64 1.53.64h10.61c.59 0 1.1-.21 1.52-.64.47-.47.7-.97.7-1.52v-6.8c-.08-4.7-.7-8.64-1.84-11.82-1.26-3.43-3.14-6.25-5.68-8.45zm100.67 18.43c-.12-2.54-.38-4.81-.76-6.8-.81-3.56-2.52-6.65-5.15-9.28h.06c-3.1-3.14-7.31-5.27-12.65-6.42-2.58-.55-5.93-.93-10.04-1.14-4.32-.3-9.17-.45-14.55-.45-7.29 0-13.37.32-18.24.95-5 .68-8.94 1.69-11.82 3.05-3.01 1.48-5.27 3.58-6.8 6.29-1.48 2.67-2.22 5.91-2.22 9.72l.19 3.11c.04.55.28 1 .7 1.34.38.38.85.57 1.4.57h10.87c.59 0 1.1-.19 1.53-.57.38-.42.57-.95.57-1.59v-.89c0-1.91.32-3.41.95-4.51.59-1.02 1.48-1.76 2.67-2.22.51-.21 1.44-.46 2.8-.76l4.51-.64c3.56-.3 8.14-.44 13.73-.44 4.24 0 7.88.11 10.93.32 2.93.21 5.28.49 7.06.83h.06c1.78.42 3.22.95 4.32 1.59 1.23.68 2.18 1.46 2.86 2.35.81.97 1.46 2.37 1.97 4.2.47 1.95.7 4.3.7 7.05v2.67c-.59-.46-1.18-.89-1.78-1.27-1.86-1.1-3.94-1.89-6.23-2.35-2.2-.34-5.55-.64-10.04-.89-4.45-.21-10.08-.32-16.9-.32-5.09 0-9.3.11-12.65.32-3.43.21-6.38.55-8.84 1.02-1.44.25-2.75.64-3.94 1.14v.06c-1.86.72-3.43 1.65-4.7 2.8-1.31 1.19-2.41 2.61-3.3 4.26-1.48 3.09-2.22 7.33-2.22 12.71 0 4.37.48 7.86 1.46 10.49 1.02 2.67 2.88 4.96 5.59 6.86 1.27.98 2.88 1.8 4.83 2.48 1.78.64 3.88 1.1 6.29 1.4 2.25.25 5.45.47 9.6.64 5.38.13 10.3.19 14.75.19 4.83 0 9.11-.13 12.84-.38 3.81-.34 6.57-.74 8.26-1.21 2.59-.76 4.93-2.06 7.05-3.88l-.06 2.41c0 .63.19 1.17.57 1.59.51.42 1.02.64 1.52.64H652c.59 0 1.1-.21 1.52-.64.42-.42.64-.93.64-1.52v-34.7c.01-3.95-.1-7.34-.31-10.18zM637.7 94.89c-.59 1.02-1.59 1.8-2.99 2.35-1.57.68-4.07 1.19-7.5 1.52-3.43.3-7.97.45-13.6.45-10.08 0-17.24-.25-21.48-.76-1.4-.13-2.52-.32-3.37-.57l-.95-.25c-1.23-.64-2.12-1.46-2.67-2.48-.64-1.23-.95-2.69-.95-4.39 0-1.78.28-3.32.82-4.64.55-1.1 1.32-1.93 2.29-2.48.51-.3 1.27-.55 2.29-.76 1.06-.3 2.42-.51 4.07-.63 3.35-.3 9.28-.44 17.8-.44 6.14 0 10.95.19 14.43.57 3.77.34 6.55.85 8.33 1.52 1.57.59 2.73 1.42 3.49 2.48.72 1.02 1.08 2.39 1.08 4.13 0 1.78-.37 3.24-1.09 4.38z"/></g></svg>